<?xml version="1.0" encoding="utf-8"?>
<!-- Generator: Adobe Illustrator 16.0.0, SVG Export Plug-In . SVG Version: 6.00 Build 0)  -->
<!DOCTYPE svg PUBLIC "-//W3C//DTD SVG 1.1//EN" "http://www.w3.org/Graphics/SVG/1.1/DTD/svg11.dtd">
<svg version="1.1" id="Layer_1" xmlns="http://www.w3.org/2000/svg" xmlns:xlink="http://www.w3.org/1999/xlink" x="0px" y="0px"
	 width="100px" height="100px" viewBox="0 0 100 100" enable-background="new 0 0 100 100" xml:space="preserve">
<g>
	<g>
		<path fill="#1B62AD" d="M61.714,77.954c-7.205-1.173-16.921-4.835-22.564-18.532L7.72,86.563c1.01,3.634,4.335,6.306,8.292,6.306
			h66.587c4.759,0,8.617-3.862,8.617-8.621v-15.57C88.042,72.385,78.813,80.741,61.714,77.954z"/>
		<path fill="#BE1E2D" d="M85.135,42.5l2.007,1.295h4.074V17.664c0-4.76-3.858-8.617-8.617-8.617H16.012
			c-4.758,0-8.617,3.857-8.617,8.617v33.8c0.555-0.243,41.149-33.14,41.149-33.14L85.135,42.5z"/>
		<path fill="#BE1E2D" d="M87.771,65.202c-0.656,0.036-2.636,0.023-2.636,0.023s-11.79,10.738-23.851,3.302
			c-7.838-4.835-15.15-16.035-16.118-33.119L7.395,69.152v9.611l33.852-29.658c0,0,3.58,19.014,21.595,24.821
			c7.152,2.303,19.93,2.548,28.375-9.063C91.216,64.863,88.635,65.155,87.771,65.202z"/>
		<rect x="58.324" y="40.856" fill="#1B62AD" width="6.607" height="6.608"/>
		<rect x="68.038" y="40.856" fill="#1B62AD" width="6.609" height="6.608"/>
		<rect x="58.324" y="50.012" fill="#1B62AD" width="6.607" height="6.607"/>
		<rect x="68.038" y="50.012" fill="#1B62AD" width="6.609" height="6.607"/>
	</g>
</g>
</svg>
